<svg width="19" height="19" viewBox="0 0 19 19" fill="none" xmlns="http://www.w3.org/2000/svg">
<path opacity="0.4" d="M9.59912 17C13.7413 17 17.0991 13.6421 17.0991 9.5C17.0991 5.35786 13.7413 2 9.59912 2C5.45699 2 2.09912 5.35786 2.09912 9.5C2.09912 13.6421 5.45699 17 9.59912 17Z" fill="#59A749"/>
<path d="M12.5991 8.9375H10.1616V6.5C10.1616 6.1925 9.90662 5.9375 9.59912 5.9375C9.29162 5.9375 9.03662 6.1925 9.03662 6.5V8.9375H6.59912C6.29162 8.9375 6.03662 9.1925 6.03662 9.5C6.03662 9.8075 6.29162 10.0625 6.59912 10.0625H9.03662V12.5C9.03662 12.8075 9.29162 13.0625 9.59912 13.0625C9.90662 13.0625 10.1616 12.8075 10.1616 12.5V10.0625H12.5991C12.9066 10.0625 13.1616 9.8075 13.1616 9.5C13.1616 9.1925 12.9066 8.9375 12.5991 8.9375Z" fill="#59A749"/>
</svg>
