<svg width="16" height="16" viewBox="0 0 16 16" fill="none" xmlns="http://www.w3.org/2000/svg">
<path opacity="0.4" d="M10.7179 1.75H5.48037C3.20537 1.75 1.84912 3.10625 1.84912 5.38125V10.6125C1.84912 12.8938 3.20537 14.25 5.48037 14.25H10.7116C12.9866 14.25 14.3429 12.8938 14.3429 10.6188V5.38125C14.3491 3.10625 12.9929 1.75 10.7179 1.75Z" fill="#59A749"/>
<path d="M11.8491 7.53125H8.56787V4.25C8.56787 3.99375 8.35537 3.78125 8.09912 3.78125C7.84287 3.78125 7.63037 3.99375 7.63037 4.25V7.53125H4.34912C4.09287 7.53125 3.88037 7.74375 3.88037 8C3.88037 8.25625 4.09287 8.46875 4.34912 8.46875H7.63037V11.75C7.63037 12.0062 7.84287 12.2188 8.09912 12.2188C8.35537 12.2188 8.56787 12.0062 8.56787 11.75V8.46875H11.8491C12.1054 8.46875 12.3179 8.25625 12.3179 8C12.3179 7.74375 12.1054 7.53125 11.8491 7.53125Z" fill="#59A749"/>
</svg>
