<svg width="24" height="24" viewBox="0 0 24 24" fill="none" xmlns="http://www.w3.org/2000/svg">
<path d="M10.7575 4.47711V6.25H9.3392C7.79628 6.25 7.02005 7.02623 7.02005 8.56915V17.75H4.57631C3.20589 17.75 2.51587 17.06 2.51587 15.6896V4.47711C2.51587 3.10669 3.20589 2.41667 4.57631 2.41667H8.69713C10.0675 2.41667 10.7575 3.10669 10.7575 4.47711Z" fill="white"/>
<path opacity="0.4" d="M17.2454 8.56915V19.2642C17.2454 20.8071 16.4788 21.5833 14.9359 21.5833H9.33917C7.79625 21.5833 7.02002 20.8071 7.02002 19.2642V8.56915C7.02002 7.02623 7.79625 6.25 9.33917 6.25H14.9359C16.4788 6.25 17.2454 7.02623 17.2454 8.56915Z" fill="white"/>
<path d="M21.6826 4.47711V15.6896C21.6826 17.06 20.9925 17.75 19.6221 17.75H17.2455V8.56915C17.2455 7.02623 16.4788 6.25 14.9359 6.25H13.4409V4.47711C13.4409 3.10669 14.1309 2.41667 15.5013 2.41667H19.6221C20.9925 2.41667 21.6826 3.10669 21.6826 4.47711Z" fill="white"/>
<path d="M14.0157 11.7604H10.1824C9.78946 11.7604 9.46362 11.4346 9.46362 11.0417C9.46362 10.6488 9.78946 10.3229 10.1824 10.3229H14.0157C14.4086 10.3229 14.7345 10.6488 14.7345 11.0417C14.7345 11.4346 14.4086 11.7604 14.0157 11.7604Z" fill="white"/>
<path d="M14.0157 14.6354H10.1824C9.78946 14.6354 9.46362 14.3096 9.46362 13.9167C9.46362 13.5238 9.78946 13.1979 10.1824 13.1979H14.0157C14.4086 13.1979 14.7345 13.5238 14.7345 13.9167C14.7345 14.3096 14.4086 14.6354 14.0157 14.6354Z" fill="white"/>
<path d="M12.8179 18.7083V21.5833H11.3804V18.7083C11.3804 18.3154 11.7062 17.9896 12.0991 17.9896C12.492 17.9896 12.8179 18.3154 12.8179 18.7083Z" fill="white"/>
</svg>
