<svg width="24" height="24" viewBox="0 0 24 24" fill="none" xmlns="http://www.w3.org/2000/svg">
<path d="M16.6511 3.91167V2.41667C16.6511 2.02376 16.3253 1.69792 15.9323 1.69792C15.5394 1.69792 15.2136 2.02376 15.2136 2.41667V3.85417H8.98443V2.41667C8.98443 2.02376 8.6586 1.69792 8.26568 1.69792C7.87276 1.69792 7.54693 2.02376 7.54693 2.41667V3.91167C4.95943 4.15125 3.70402 5.69417 3.51235 7.98459C3.49318 8.2625 3.72318 8.4925 3.99152 8.4925H20.2065C20.4844 8.4925 20.7144 8.25292 20.6857 7.98459C20.494 5.69417 19.2386 4.15125 16.6511 3.91167Z" fill="white"/>
<path opacity="0.4" d="M19.7658 9.92999C20.2929 9.92999 20.7241 10.3612 20.7241 10.8883V16.7917C20.7241 19.6667 19.2866 21.5833 15.9325 21.5833H8.26579C4.91162 21.5833 3.47412 19.6667 3.47412 16.7917V10.8883C3.47412 10.3612 3.90537 9.92999 4.43245 9.92999H19.7658Z" fill="white"/>
<path d="M8.74495 14.875C8.49579 14.875 8.24662 14.7696 8.06454 14.5971C7.89204 14.415 7.78662 14.1658 7.78662 13.9167C7.78662 13.6675 7.89204 13.4183 8.06454 13.2362C8.33287 12.9679 8.75454 12.8816 9.10912 13.035C9.23371 13.0829 9.33912 13.15 9.42537 13.2362C9.59787 13.4183 9.70329 13.6675 9.70329 13.9167C9.70329 14.1658 9.59787 14.415 9.42537 14.5971C9.24329 14.7696 8.99412 14.875 8.74495 14.875Z" fill="white"/>
<path d="M12.0992 14.875C11.85 14.875 11.6009 14.7696 11.4188 14.5971C11.2463 14.415 11.1409 14.1658 11.1409 13.9167C11.1409 13.6675 11.2463 13.4183 11.4188 13.2362C11.505 13.15 11.6105 13.0829 11.735 13.035C12.0896 12.8816 12.5113 12.9679 12.7796 13.2362C12.9521 13.4183 13.0575 13.6675 13.0575 13.9167C13.0575 14.1658 12.9521 14.415 12.7796 14.5971C12.7317 14.6354 12.6838 14.6737 12.6359 14.7121C12.5784 14.7504 12.5209 14.7792 12.4634 14.7983C12.4059 14.8271 12.3484 14.8463 12.2909 14.8558C12.2238 14.8654 12.1663 14.875 12.0992 14.875Z" fill="white"/>
<path d="M15.4532 14.875C15.204 14.875 14.9549 14.7696 14.7728 14.5971C14.6003 14.415 14.4949 14.1658 14.4949 13.9167C14.4949 13.6675 14.6003 13.4183 14.7728 13.2363C14.8686 13.15 14.9645 13.0829 15.089 13.035C15.2615 12.9583 15.4532 12.9392 15.6449 12.9775C15.7024 12.9871 15.7599 13.0062 15.8174 13.035C15.8749 13.0542 15.9324 13.0829 15.9899 13.1213C16.0378 13.1596 16.0857 13.1979 16.1336 13.2363C16.3061 13.4183 16.4115 13.6675 16.4115 13.9167C16.4115 14.1658 16.3061 14.415 16.1336 14.5971C16.0857 14.6354 16.0378 14.6737 15.9899 14.7121C15.9324 14.7504 15.8749 14.7792 15.8174 14.7984C15.7599 14.8271 15.7024 14.8463 15.6449 14.8559C15.5778 14.8654 15.5107 14.875 15.4532 14.875Z" fill="white"/>
<path d="M8.74495 18.2292C8.62037 18.2292 8.49579 18.2004 8.38079 18.1525C8.2562 18.1046 8.16037 18.0375 8.06454 17.9513C7.89204 17.7692 7.78662 17.52 7.78662 17.2708C7.78662 17.0217 7.89204 16.7725 8.06454 16.5904C8.16037 16.5042 8.2562 16.4371 8.38079 16.3892C8.55329 16.3125 8.74496 16.2933 8.93662 16.3317C8.99412 16.3413 9.05162 16.3604 9.10912 16.3892C9.16662 16.4083 9.22412 16.4371 9.28162 16.4754C9.32954 16.5138 9.37745 16.5521 9.42537 16.5904C9.59787 16.7725 9.70329 17.0217 9.70329 17.2708C9.70329 17.52 9.59787 17.7692 9.42537 17.9513C9.37745 17.9896 9.32954 18.0375 9.28162 18.0662C9.22412 18.1046 9.16662 18.1334 9.10912 18.1525C9.05162 18.1813 8.99412 18.2004 8.93662 18.21C8.86954 18.2196 8.81204 18.2292 8.74495 18.2292Z" fill="white"/>
<path d="M12.0992 18.2292C11.85 18.2292 11.6009 18.1237 11.4188 17.9512C11.2463 17.7692 11.1409 17.52 11.1409 17.2708C11.1409 17.0217 11.2463 16.7725 11.4188 16.5904C11.7734 16.2358 12.425 16.2358 12.7796 16.5904C12.9521 16.7725 13.0575 17.0217 13.0575 17.2708C13.0575 17.52 12.9521 17.7692 12.7796 17.9512C12.5975 18.1237 12.3484 18.2292 12.0992 18.2292Z" fill="white"/>
<path d="M15.4532 18.2292C15.204 18.2292 14.9549 18.1237 14.7728 17.9512C14.6003 17.7692 14.4949 17.52 14.4949 17.2708C14.4949 17.0217 14.6003 16.7725 14.7728 16.5904C15.1274 16.2358 15.779 16.2358 16.1336 16.5904C16.3061 16.7725 16.4115 17.0217 16.4115 17.2708C16.4115 17.52 16.3061 17.7692 16.1336 17.9512C15.9515 18.1237 15.7024 18.2292 15.4532 18.2292Z" fill="white"/>
</svg>
