<svg width="19" height="19" viewBox="0 0 19 19" fill="none" xmlns="http://www.w3.org/2000/svg">
<path opacity="0.4" d="M9.44162 11.1575L6.98912 13.61C6.71912 13.37 6.45662 13.1225 6.20162 12.8675C5.42912 12.0875 4.73162 11.27 4.10912 10.415C3.49412 9.56 2.99912 8.705 2.63912 7.8575C2.27912 7.0025 2.09912 6.185 2.09912 5.405C2.09912 4.895 2.18912 4.4075 2.36912 3.9575C2.54912 3.5 2.83412 3.08 3.23162 2.705C3.71162 2.2325 4.23662 2 4.79162 2C5.00162 2 5.21162 2.045 5.39912 2.135C5.59412 2.225 5.76662 2.36 5.90162 2.555L7.64162 5.0075C7.77662 5.195 7.87412 5.3675 7.94162 5.5325C8.00912 5.69 8.04662 5.8475 8.04662 5.99C8.04662 6.17 7.99412 6.35 7.88912 6.5225C7.79162 6.695 7.64912 6.875 7.46912 7.055L6.89912 7.6475C6.81662 7.73 6.77912 7.8275 6.77912 7.9475C6.77912 8.0075 6.78662 8.06 6.80162 8.12C6.82412 8.18 6.84662 8.225 6.86162 8.27C6.99662 8.5175 7.22912 8.84 7.55912 9.23C7.89662 9.62 8.25662 10.0175 8.64662 10.415C8.91662 10.6775 9.17912 10.9325 9.44162 11.1575Z" fill="#59A749"/>
<path d="M17.0766 14.2475C17.0766 14.4575 17.0391 14.675 16.9641 14.885C16.9416 14.945 16.9191 15.005 16.8891 15.065C16.7616 15.335 16.5966 15.59 16.3791 15.83C16.0116 16.235 15.6066 16.5275 15.1491 16.715C15.1416 16.715 15.1341 16.7225 15.1266 16.7225C14.6841 16.9025 14.2041 17 13.6866 17C12.9216 17 12.1041 16.82 11.2416 16.4525C10.3791 16.085 9.51657 15.59 8.66157 14.9675C8.36907 14.75 8.07657 14.5325 7.79907 14.3L10.2516 11.8475C10.4616 12.005 10.6491 12.125 10.8066 12.2075C10.8441 12.2225 10.8891 12.245 10.9416 12.2675C11.0016 12.29 11.0616 12.2975 11.1291 12.2975C11.2566 12.2975 11.3541 12.2525 11.4366 12.17L12.0066 11.6075C12.1941 11.42 12.3741 11.2775 12.5466 11.1875C12.7191 11.0825 12.8916 11.03 13.0791 11.03C13.2216 11.03 13.3716 11.06 13.5366 11.1275C13.7016 11.195 13.8741 11.2925 14.0616 11.42L16.5441 13.1825C16.7391 13.3175 16.8741 13.475 16.9566 13.6625C17.0316 13.85 17.0766 14.0375 17.0766 14.2475Z" fill="#59A749"/>
</svg>
