<svg width="16" height="16" viewBox="0 0 16 16" fill="none" xmlns="http://www.w3.org/2000/svg">
<path opacity="0.4" d="M7.96787 9.38125L5.92412 11.425C5.69912 11.225 5.48037 11.0187 5.26787 10.8062C4.62412 10.1562 4.04287 9.475 3.52412 8.7625C3.01162 8.05 2.59912 7.3375 2.29912 6.63125C1.99912 5.91875 1.84912 5.2375 1.84912 4.5875C1.84912 4.1625 1.92412 3.75625 2.07412 3.38125C2.22412 3 2.46162 2.65 2.79287 2.3375C3.19287 1.94375 3.63037 1.75 4.09287 1.75C4.26787 1.75 4.44287 1.7875 4.59912 1.8625C4.76162 1.9375 4.90537 2.05 5.01787 2.2125L6.46787 4.25625C6.58037 4.4125 6.66162 4.55625 6.71787 4.69375C6.77412 4.825 6.80537 4.95625 6.80537 5.075C6.80537 5.225 6.76162 5.375 6.67412 5.51875C6.59287 5.6625 6.47412 5.8125 6.32412 5.9625L5.84912 6.45625C5.78037 6.525 5.74912 6.60625 5.74912 6.70625C5.74912 6.75625 5.75537 6.8 5.76787 6.85C5.78662 6.9 5.80537 6.9375 5.81787 6.975C5.93037 7.18125 6.12412 7.45 6.39912 7.775C6.68037 8.1 6.98037 8.43125 7.30537 8.7625C7.53037 8.98125 7.74912 9.19375 7.96787 9.38125Z" fill="#7E94CD"/>
<path d="M14.3304 11.9563C14.3304 12.1313 14.2991 12.3125 14.2366 12.4875C14.2179 12.5375 14.1991 12.5875 14.1741 12.6375C14.0679 12.8625 13.9304 13.075 13.7491 13.275C13.4429 13.6125 13.1054 13.8563 12.7241 14.0125C12.7179 14.0125 12.7116 14.0188 12.7054 14.0188C12.3366 14.1688 11.9366 14.25 11.5054 14.25C10.8679 14.25 10.1866 14.1 9.46787 13.7938C8.74912 13.4875 8.03037 13.075 7.31787 12.5563C7.07412 12.375 6.83037 12.1938 6.59912 12L8.64287 9.95625C8.81787 10.0875 8.97412 10.1875 9.10537 10.2563C9.13662 10.2688 9.17412 10.2875 9.21787 10.3063C9.26787 10.325 9.31787 10.3313 9.37412 10.3313C9.48037 10.3313 9.56162 10.2938 9.63037 10.225L10.1054 9.75625C10.2616 9.6 10.4116 9.48125 10.5554 9.40625C10.6991 9.31875 10.8429 9.275 10.9991 9.275C11.1179 9.275 11.2429 9.3 11.3804 9.35625C11.5179 9.4125 11.6616 9.49375 11.8179 9.6L13.8866 11.0688C14.0491 11.1813 14.1616 11.3125 14.2304 11.4688C14.2929 11.625 14.3304 11.7813 14.3304 11.9563Z" fill="#7E94CD"/>
</svg>
