<svg width="19" height="19" viewBox="0 0 19 19" fill="none" xmlns="http://www.w3.org/2000/svg">
<path d="M12.5991 10.175V13.325C12.5991 15.95 11.5491 17 8.92412 17H5.77412C3.14912 17 2.09912 15.95 2.09912 13.325V10.175C2.09912 7.55 3.14912 6.5 5.77412 6.5H8.92412C11.5491 6.5 12.5991 7.55 12.5991 10.175Z" fill="#8C8C8C"/>
<path opacity="0.4" d="M13.4242 2H10.2742C7.68669 2 6.63669 3.0275 6.60669 5.5625H8.92419C12.0742 5.5625 13.5367 7.025 13.5367 10.175V12.4925C16.0717 12.4625 17.0992 11.4125 17.0992 8.825V5.675C17.0992 3.05 16.0492 2 13.4242 2Z" fill="#8C8C8C"/>
</svg>
