<svg width="24" height="24" viewBox="0 0 24 24" fill="none" xmlns="http://www.w3.org/2000/svg">
<path d="M21.6825 22.3021H5.39087C3.40712 22.3021 1.79712 20.6921 1.79712 18.7083V2.41667C1.79712 2.02376 2.12295 1.69792 2.51587 1.69792C2.90879 1.69792 3.23462 2.02376 3.23462 2.41667V18.7083C3.23462 19.8967 4.20254 20.8646 5.39087 20.8646H21.6825C22.0755 20.8646 22.4013 21.1904 22.4013 21.5833C22.4013 21.9763 22.0755 22.3021 21.6825 22.3021Z" fill="white"/>
<path opacity="0.4" d="M5.3907 17.5104C5.22778 17.5104 5.05528 17.4529 4.92112 17.3379C4.62403 17.0792 4.5857 16.6288 4.84445 16.3221L9.2432 11.1854C9.72237 10.6296 10.4124 10.2942 11.1407 10.2654C11.869 10.2463 12.5878 10.5146 13.1053 11.0321L14.0157 11.9425C14.2553 12.1821 14.5619 12.2971 14.9069 12.2971C15.2424 12.2875 15.549 12.1342 15.7694 11.8754L20.1682 6.73877C20.4269 6.44168 20.8774 6.40333 21.184 6.66208C21.4811 6.92083 21.5194 7.37125 21.2607 7.67791L16.8619 12.8146C16.3828 13.3704 15.6928 13.7058 14.9644 13.7346C14.2265 13.7538 13.5174 13.4854 12.9999 12.9679L12.099 12.0575C11.8594 11.8179 11.5432 11.6933 11.2078 11.7029C10.8724 11.7125 10.5657 11.8658 10.3453 12.1246L5.94653 17.2612C5.7932 17.4242 5.59195 17.5104 5.3907 17.5104Z" fill="white"/>
</svg>
