<svg width="24" height="24" viewBox="0 0 24 24" fill="none" xmlns="http://www.w3.org/2000/svg">
<path opacity="0.4" d="M16.1146 4.33334H8.08379C4.59545 4.33334 2.51587 6.41292 2.51587 9.90125V16.0058C2.51587 19.5038 4.59545 21.5833 8.08379 21.5833H16.105C19.5934 21.5833 21.673 19.5038 21.673 16.0154V9.90125C21.6825 6.41292 19.603 4.33334 16.1146 4.33334Z" fill="white"/>
<path d="M21.0117 12.2204H17.6767C16.7375 12.2204 15.9038 12.7379 15.4821 13.5812L14.6771 15.1721C14.4855 15.5554 14.1021 15.795 13.6805 15.795H10.5371C10.24 15.795 9.81837 15.7279 9.54045 15.1721L8.73545 13.5908C8.31379 12.7571 7.47045 12.23 6.54087 12.23H3.1867C2.81295 12.23 2.51587 12.5271 2.51587 12.9008V16.025C2.51587 19.5037 4.60504 21.5833 8.09337 21.5833H16.1242C19.4113 21.5833 21.4334 19.7817 21.6825 16.5808V12.8912C21.6825 12.5271 21.3855 12.2204 21.0117 12.2204Z" fill="white"/>
<path d="M14.5237 6.70041C14.2458 6.4225 13.7858 6.4225 13.5078 6.70041L12.8178 7.39041V2.41666C12.8178 2.02375 12.492 1.69791 12.0991 1.69791C11.7062 1.69791 11.3803 2.02375 11.3803 2.41666V7.39041L10.6903 6.70041C10.4124 6.4225 9.95242 6.4225 9.6745 6.70041C9.39659 6.97833 9.39659 7.43833 9.6745 7.71625L11.5912 9.63291C11.6008 9.6425 11.6103 9.6425 11.6103 9.65208C11.6678 9.70958 11.7445 9.7575 11.8212 9.79583C11.917 9.82458 12.0033 9.84375 12.0991 9.84375C12.1949 9.84375 12.2812 9.82458 12.3674 9.78625C12.4537 9.74791 12.5303 9.7 12.607 9.63291L14.5237 7.71625C14.8016 7.43833 14.8016 6.97833 14.5237 6.70041Z" fill="white"/>
</svg>
