<svg width="24" height="24" viewBox="0 0 24 24" fill="none" xmlns="http://www.w3.org/2000/svg">
<path opacity="0.4" d="M20.2449 10.2654H17.4753C15.204 10.2654 13.3545 8.41583 13.3545 6.14458V3.375C13.3545 2.84792 12.9232 2.41667 12.3961 2.41667H8.33279C5.38112 2.41667 2.99487 4.33333 2.99487 7.75458V16.2454C2.99487 19.6667 5.38112 21.5833 8.33279 21.5833H15.8653C18.817 21.5833 21.2032 19.6667 21.2032 16.2454V11.2238C21.2032 10.6967 20.772 10.2654 20.2449 10.2654Z" fill="white"/>
<path d="M15.7408 2.61792C15.3479 2.225 14.6675 2.49333 14.6675 3.03958V6.38417C14.6675 7.78333 15.8558 8.94292 17.3029 8.94292C18.2133 8.9525 19.4783 8.9525 20.5612 8.9525C21.1075 8.9525 21.395 8.31042 21.0116 7.92708C19.6316 6.5375 17.1591 4.03625 15.7408 2.61792Z" fill="white"/>
<path d="M13.5366 13.6771H7.78662C7.3937 13.6771 7.06787 13.3513 7.06787 12.9583C7.06787 12.5654 7.3937 12.2396 7.78662 12.2396H13.5366C13.9295 12.2396 14.2554 12.5654 14.2554 12.9583C14.2554 13.3513 13.9295 13.6771 13.5366 13.6771Z" fill="white"/>
<path d="M11.62 17.5104H7.78662C7.3937 17.5104 7.06787 17.1846 7.06787 16.7917C7.06787 16.3987 7.3937 16.0729 7.78662 16.0729H11.62C12.0129 16.0729 12.3387 16.3987 12.3387 16.7917C12.3387 17.1846 12.0129 17.5104 11.62 17.5104Z" fill="white"/>
</svg>
