<svg width="24" height="24" viewBox="0 0 24 24" fill="none" xmlns="http://www.w3.org/2000/svg">
<path opacity="0.4" d="M16.1146 2.41667H8.08379C4.59545 2.41667 2.51587 4.49625 2.51587 7.98458V16.0058C2.51587 19.5038 4.59545 21.5833 8.08379 21.5833H16.105C19.5934 21.5833 21.673 19.5038 21.673 16.0154V7.98458C21.6825 4.49625 19.603 2.41667 16.1146 2.41667Z" fill="white"/>
<path d="M14.2649 12L12.8178 11.4921V8.24333H13.1628C13.939 8.24333 14.5715 8.92375 14.5715 9.7575C14.5715 10.1504 14.8974 10.4762 15.2903 10.4762C15.6832 10.4762 16.009 10.1504 16.009 9.7575C16.009 8.12833 14.7344 6.80583 13.1628 6.80583H12.8178V6.25C12.8178 5.85708 12.4919 5.53125 12.099 5.53125C11.7061 5.53125 11.3803 5.85708 11.3803 6.25V6.80583H10.7574C9.33903 6.80583 8.17944 8.00375 8.17944 9.47C8.17944 11.1854 9.17611 11.7317 9.93319 12L11.3803 12.5079V15.7471H11.0353C10.259 15.7471 9.62653 15.0667 9.62653 14.2329C9.62653 13.84 9.30069 13.5142 8.90778 13.5142C8.51486 13.5142 8.18903 13.84 8.18903 14.2329C8.18903 15.8621 9.46361 17.1846 11.0353 17.1846H11.3803V17.75C11.3803 18.1429 11.7061 18.4687 12.099 18.4687C12.4919 18.4687 12.8178 18.1429 12.8178 17.75V17.1942H13.4407C14.859 17.1942 16.0186 15.9963 16.0186 14.53C16.009 12.805 15.0124 12.2587 14.2649 12ZM10.4124 10.6488C9.92361 10.4763 9.62653 10.3133 9.62653 9.47958C9.62653 8.79917 10.1344 8.25292 10.7669 8.25292H11.3899V10.9937L10.4124 10.6488ZM13.4407 15.7567H12.8178V13.0158L13.7857 13.3512C14.2744 13.5237 14.5715 13.6867 14.5715 14.5204C14.5715 15.2008 14.0636 15.7567 13.4407 15.7567Z" fill="white"/>
</svg>
