<svg width="16" height="16" viewBox="0 0 16 16" fill="none" xmlns="http://www.w3.org/2000/svg">
<path opacity="0.4" d="M10.7179 1.75H5.48037C3.20537 1.75 1.84912 3.10625 1.84912 5.38125V10.6125C1.84912 12.8938 3.20537 14.25 5.48037 14.25H10.7116C12.9866 14.25 14.3429 12.8938 14.3429 10.6188V5.38125C14.3491 3.10625 12.9929 1.75 10.7179 1.75Z" fill="#7E94CD"/>
<path d="M12.3616 7.1125C12.6116 7.1125 12.8179 6.90625 12.8179 6.65625C12.8179 6.40625 12.6116 6.2 12.3616 6.2H10.1054L10.3491 4.0125C10.3741 3.7625 10.1991 3.5375 9.94287 3.50625C9.69287 3.48125 9.46787 3.65625 9.43662 3.9125L9.18037 6.2H7.41162L7.65537 4.0125C7.68037 3.7625 7.50537 3.5375 7.24912 3.50625C6.99912 3.48125 6.77412 3.65625 6.74287 3.9125L6.49287 6.2H4.28662C4.03662 6.2 3.83037 6.40625 3.83037 6.65625C3.83037 6.90625 4.03662 7.1125 4.28662 7.1125H6.39287L6.19287 8.89375H3.83662C3.58662 8.89375 3.38037 9.1 3.38037 9.35C3.38037 9.6 3.58662 9.80625 3.83662 9.80625H6.09287L5.84912 11.9937C5.82412 12.2437 5.99912 12.4687 6.25537 12.5C6.27412 12.5 6.28662 12.5 6.30537 12.5C6.53662 12.5 6.73037 12.325 6.76162 12.0937L7.01787 9.80625H8.79287L8.54912 11.9937C8.52412 12.2437 8.69912 12.4687 8.95537 12.5C8.97412 12.5 8.98662 12.5 9.00537 12.5C9.23662 12.5 9.43037 12.325 9.46162 12.0937L9.71787 9.80625H11.9241C12.1741 9.80625 12.3804 9.6 12.3804 9.35C12.3804 9.1 12.1741 8.89375 11.9241 8.89375H9.81787L10.0179 7.1125H12.3616ZM8.88662 8.8875H7.11162L7.31162 7.10625H9.08662L8.88662 8.8875Z" fill="#7E94CD"/>
</svg>
