<svg width="24" height="24" viewBox="0 0 24 24" fill="none" xmlns="http://www.w3.org/2000/svg">
<path opacity="0.4" d="M19.804 7.03583L14.284 3.17375C12.7794 2.11958 10.4699 2.17708 9.02277 3.29833L4.22152 7.04541C3.26319 7.79291 2.5061 9.32625 2.5061 10.5337V17.1462C2.5061 19.59 4.48985 21.5833 6.9336 21.5833H17.2644C19.7082 21.5833 21.6919 19.5996 21.6919 17.1558V10.6583C21.6919 9.36458 20.8582 7.77375 19.804 7.03583Z" fill="white"/>
<path d="M12.0991 18.4687C11.7062 18.4687 11.3804 18.1429 11.3804 17.75V14.875C11.3804 14.4821 11.7062 14.1562 12.0991 14.1562C12.492 14.1562 12.8179 14.4821 12.8179 14.875V17.75C12.8179 18.1429 12.492 18.4687 12.0991 18.4687Z" fill="white"/>
</svg>
