<svg width="19" height="19" viewBox="0 0 19 19" fill="none" xmlns="http://www.w3.org/2000/svg">
<path opacity="0.4" d="M16.844 8.33001L16.109 11.465C15.479 14.1725 14.234 15.2675 11.894 15.0425C11.519 15.0125 11.114 14.945 10.679 14.84L9.41901 14.54C6.29151 13.7975 5.32401 12.2525 6.05901 9.11751L6.79401 5.97501C6.94401 5.33751 7.12401 4.78251 7.34901 4.32501C8.22651 2.51001 9.71901 2.02251 12.224 2.61501L13.4765 2.90751C16.619 3.64251 17.579 5.19501 16.844 8.33001Z" fill="#8C8C8C"/>
<path d="M11.8941 15.0425C11.4291 15.3575 10.8441 15.62 10.1316 15.8525L8.94663 16.2425C5.96913 17.2025 4.40163 16.4 3.43413 13.4225L2.47413 10.46C1.51413 7.48251 2.30913 5.90751 5.28663 4.94751L6.47163 4.55751C6.77913 4.46001 7.07163 4.37751 7.34913 4.32501C7.12413 4.78251 6.94413 5.33751 6.79413 5.97501L6.05913 9.11751C5.32413 12.2525 6.29163 13.7975 9.41913 14.54L10.6791 14.84C11.1141 14.945 11.5191 15.0125 11.8941 15.0425Z" fill="#8C8C8C"/>
<path d="M13.7166 8.38249C13.6716 8.38249 13.6266 8.37499 13.5741 8.36749L9.93665 7.44499C9.63665 7.36999 9.45665 7.06249 9.53165 6.76249C9.60665 6.46249 9.91415 6.28249 10.2141 6.35749L13.8516 7.27999C14.1516 7.35499 14.3316 7.66249 14.2566 7.96249C14.1966 8.20999 13.9641 8.38249 13.7166 8.38249Z" fill="#8C8C8C"/>
<path d="M11.5192 10.9175C11.4742 10.9175 11.4292 10.91 11.3767 10.9025L9.19422 10.3475C8.89422 10.2725 8.71422 9.96501 8.78922 9.66501C8.86422 9.36501 9.17172 9.18501 9.47172 9.26001L11.6542 9.81501C11.9542 9.89001 12.1342 10.1975 12.0592 10.4975C11.9992 10.7525 11.7742 10.9175 11.5192 10.9175Z" fill="#8C8C8C"/>
</svg>
