<svg width="24" height="24" viewBox="0 0 24 24" fill="none" xmlns="http://www.w3.org/2000/svg">
<path opacity="0.4" d="M17.3986 7.94625C17.3315 7.93667 17.2645 7.93667 17.1974 7.94625C15.712 7.89834 14.5332 6.68125 14.5332 5.18625C14.5332 3.6625 15.7695 2.41666 17.3028 2.41666C18.8265 2.41666 20.0724 3.65291 20.0724 5.18625C20.0628 6.68125 18.884 7.89834 17.3986 7.94625Z" fill="white"/>
<path opacity="0.4" d="M20.523 14.5875C19.4497 15.3062 17.9451 15.5746 16.5555 15.3925C16.9197 14.6067 17.1113 13.7346 17.1209 12.8146C17.1209 11.8563 16.9101 10.9458 16.5076 10.1504C17.9259 9.95876 19.4305 10.2271 20.5134 10.9458C22.0276 11.9425 22.0276 13.5812 20.523 14.5875Z" fill="white"/>
<path opacity="0.4" d="M6.77067 7.94625C6.83775 7.93667 6.90484 7.93667 6.97192 7.94625C8.45734 7.89834 9.63609 6.68125 9.63609 5.18625C9.63609 3.6625 8.39984 2.41666 6.86651 2.41666C5.34276 2.41666 4.09692 3.65291 4.09692 5.18625C4.10651 6.68125 5.28525 7.89834 6.77067 7.94625Z" fill="white"/>
<path opacity="0.4" d="M6.87619 12.8146C6.87619 13.7442 7.07744 14.6258 7.44161 15.4212C6.09036 15.565 4.68161 15.2775 3.64661 14.5971C2.13244 13.5908 2.13244 11.9521 3.64661 10.9458C4.67203 10.2558 6.11911 9.97791 7.47994 10.1312C7.08703 10.9362 6.87619 11.8467 6.87619 12.8146Z" fill="white"/>
<path d="M12.2142 15.7087C12.1376 15.6992 12.0513 15.6992 11.9651 15.7087C10.2017 15.6512 8.79297 14.2042 8.79297 12.4217C8.79297 10.6008 10.2592 9.125 12.0896 9.125C13.9105 9.125 15.3863 10.6008 15.3863 12.4217C15.3863 14.2042 13.9871 15.6512 12.2142 15.7087Z" fill="white"/>
<path d="M9.09947 17.6925C7.65239 18.6604 7.65239 20.2512 9.09947 21.2096C10.7478 22.3117 13.4503 22.3117 15.0986 21.2096C16.5457 20.2417 16.5457 18.6508 15.0986 17.6925C13.4599 16.5904 10.7574 16.5904 9.09947 17.6925Z" fill="white"/>
</svg>
