<svg width="17" height="17" viewBox="0 0 17 17" fill="none" xmlns="http://www.w3.org/2000/svg">
<path opacity="0.4" d="M7.81413 13.8466C11.1315 13.8466 13.8208 11.1573 13.8208 7.83992C13.8208 4.52253 11.1315 1.83325 7.81413 1.83325C4.49674 1.83325 1.80746 4.52253 1.80746 7.83992C1.80746 11.1573 4.49674 13.8466 7.81413 13.8466Z" fill="#B8B8B8"/>
<path d="M15.1341 13.1333C14.9141 12.7267 14.4475 12.5 13.8208 12.5C13.3475 12.5 12.9408 12.6933 12.7008 13.0267C12.4608 13.36 12.4075 13.8067 12.5541 14.2533C12.8408 15.12 13.3408 15.3133 13.6141 15.3467C13.6541 15.3533 13.6941 15.3533 13.7408 15.3533C14.0341 15.3533 14.4875 15.2267 14.9275 14.5667C15.2808 14.0533 15.3475 13.54 15.1341 13.1333Z" fill="#B8B8B8"/>
</svg>
