<svg width="19" height="19" viewBox="0 0 19 19" fill="none" xmlns="http://www.w3.org/2000/svg">
<path opacity="0.4" d="M5.93167 4.96999L12.6967 2.71249C15.7342 1.69999 17.3842 3.35749 16.3792 6.39499L14.1217 13.16C12.6067 17.7125 10.1167 17.7125 8.60167 13.16L7.93417 11.15L5.92417 10.4825C1.37917 8.97499 1.37917 6.49249 5.93167 4.96999Z" fill="#8C8C8C"/>
<path d="M9.68921 9.22251L12.5467 6.35751Z" fill="#8C8C8C"/>
<path d="M9.68904 9.785C9.54654 9.785 9.40404 9.7325 9.29154 9.62C9.07404 9.4025 9.07404 9.0425 9.29154 8.825L12.1415 5.96C12.359 5.7425 12.719 5.7425 12.9365 5.96C13.154 6.1775 13.154 6.5375 12.9365 6.755L10.0865 9.62C9.97404 9.725 9.83154 9.785 9.68904 9.785Z" fill="#8C8C8C"/>
</svg>
