<svg width="24" height="24" viewBox="0 0 24 24" fill="none" xmlns="http://www.w3.org/2000/svg">
<path opacity="0.4" d="M2.51587 12.8433V11.1567C2.51587 10.16 3.33045 9.33582 4.3367 9.33582C6.07129 9.33582 6.78045 8.10916 5.90837 6.60457C5.41004 5.74207 5.70712 4.62082 6.5792 4.12249L8.23712 3.17374C8.9942 2.72332 9.9717 2.99166 10.4221 3.74874L10.5275 3.93082C11.39 5.43541 12.8084 5.43541 13.6805 3.93082L13.7859 3.74874C14.2363 2.99166 15.2138 2.72332 15.9709 3.17374L17.6288 4.12249C18.5009 4.62082 18.798 5.74207 18.2996 6.60457C17.4275 8.10916 18.1367 9.33582 19.8713 9.33582C20.868 9.33582 21.6921 10.1504 21.6921 11.1567V12.8433C21.6921 13.84 20.8775 14.6642 19.8713 14.6642C18.1367 14.6642 17.4275 15.8908 18.2996 17.3954C18.798 18.2675 18.5009 19.3792 17.6288 19.8775L15.9709 20.8262C15.2138 21.2767 14.2363 21.0083 13.7859 20.2512L13.6805 20.0692C12.818 18.5646 11.3996 18.5646 10.5275 20.0692L10.4221 20.2512C9.9717 21.0083 8.9942 21.2767 8.23712 20.8262L6.5792 19.8775C5.70712 19.3792 5.41004 18.2579 5.90837 17.3954C6.78045 15.8908 6.07129 14.6642 4.3367 14.6642C3.33045 14.6642 2.51587 13.84 2.51587 12.8433Z" fill="white"/>
<path d="M12.0992 15.1146C13.8193 15.1146 15.2138 13.7201 15.2138 12C15.2138 10.2799 13.8193 8.88541 12.0992 8.88541C10.3791 8.88541 8.98462 10.2799 8.98462 12C8.98462 13.7201 10.3791 15.1146 12.0992 15.1146Z" fill="white"/>
</svg>
