<svg width="16" height="16" viewBox="0 0 16 16" fill="none" xmlns="http://www.w3.org/2000/svg">
<path opacity="0.4" d="M11.2241 13.3125H4.97412C3.09912 13.3125 1.84912 12.375 1.84912 10.1875V5.8125C1.84912 3.625 3.09912 2.6875 4.97412 2.6875H11.2241C13.0991 2.6875 14.3491 3.625 14.3491 5.8125V10.1875C14.3491 12.375 13.0991 13.3125 11.2241 13.3125Z" fill="#7E94CD"/>
<path d="M8.0991 8.54375C7.5741 8.54375 7.04286 8.38125 6.63661 8.05L4.68035 6.4875C4.48035 6.325 4.44286 6.03125 4.60536 5.83125C4.76786 5.63125 5.06161 5.59375 5.26161 5.75625L7.21785 7.31875C7.69285 7.7 8.4991 7.7 8.9741 7.31875L10.9304 5.75625C11.1304 5.59375 11.4304 5.625 11.5866 5.83125C11.7491 6.03125 11.7179 6.33125 11.5116 6.4875L9.55536 8.05C9.15536 8.38125 8.6241 8.54375 8.0991 8.54375Z" fill="#292D32"/>
</svg>
