<svg width="24" height="24" viewBox="0 0 24 24" fill="none" xmlns="http://www.w3.org/2000/svg">
<path opacity="0.4" d="M16.1145 2.41667H8.0933C4.60497 2.41667 2.52539 4.49626 2.52539 7.98459V16.0058C2.52539 19.4942 4.60497 21.5738 8.0933 21.5738H16.1145C19.6029 21.5738 21.6825 19.4942 21.6825 16.0058V7.98459C21.6825 4.49626 19.6029 2.41667 16.1145 2.41667Z" fill="white"/>
<path d="M21.6825 10.2367H14.3321C14.3225 10.1696 14.3225 10.0929 14.3034 10.0258C14.1021 9.25917 13.4792 8.63625 12.7126 8.435C11.3326 8.07083 10.0771 8.97167 9.8663 10.2367H2.51587V11.6742H10.0963C10.288 12.0383 10.5563 12.345 10.9013 12.5558V14.4533C10.9013 15.1146 11.438 15.6513 12.0992 15.6513C12.7605 15.6513 13.2971 15.1146 13.2971 14.4533V12.5558C13.6421 12.345 13.9104 12.0383 14.1021 11.6742H21.6825V10.2367Z" fill="white"/>
</svg>
