<svg width="16" height="16" viewBox="0 0 16 16" fill="none" xmlns="http://www.w3.org/2000/svg">
<path opacity="0.4" d="M3.20537 10.0625L6.03661 12.8938C7.19911 14.0563 9.08661 14.0563 10.2554 12.8938L12.9991 10.15C14.1616 8.9875 14.1616 7.1 12.9991 5.93125L10.1616 3.10625C9.56786 2.5125 8.74911 2.19375 7.91161 2.2375L4.78661 2.3875C3.53661 2.44375 2.54287 3.4375 2.48037 4.68125L2.33037 7.80625C2.29287 8.65 2.61162 9.46875 3.20537 10.0625Z" fill="#8C8C8C"/>
<path d="M6.53657 8.2375C7.53068 8.2375 8.33657 7.43161 8.33657 6.4375C8.33657 5.44339 7.53068 4.6375 6.53657 4.6375C5.54246 4.6375 4.73657 5.44339 4.73657 6.4375C4.73657 7.43161 5.54246 8.2375 6.53657 8.2375Z" fill="#8C8C8C"/>
</svg>
