<svg width="19" height="19" viewBox="0 0 19 19" fill="none" xmlns="http://www.w3.org/2000/svg">
<path d="M15.5991 14.945H8.79664C8.45914 14.945 8.18164 14.6675 8.18164 14.33C8.18164 13.9925 8.45914 13.715 8.79664 13.715H15.5991C15.9366 13.715 16.2141 13.9925 16.2141 14.33C16.2141 14.675 15.9366 14.945 15.5991 14.945Z" fill="#8C8C8C"/>
<path d="M15.5991 10.2275H8.79664C8.45914 10.2275 8.18164 9.95 8.18164 9.6125C8.18164 9.275 8.45914 8.9975 8.79664 8.9975H15.5991C15.9366 8.9975 16.2141 9.275 16.2141 9.6125C16.2141 9.95 15.9366 10.2275 15.5991 10.2275Z" fill="#8C8C8C"/>
<path d="M15.5991 5.50249H8.79664C8.45914 5.50249 8.18164 5.22499 8.18164 4.88749C8.18164 4.54999 8.45914 4.27249 8.79664 4.27249H15.5991C15.9366 4.27249 16.2141 4.54999 16.2141 4.88749C16.2141 5.22499 15.9366 5.50249 15.5991 5.50249Z" fill="#8C8C8C"/>
<path opacity="0.4" d="M4.28163 6.5225C4.11663 6.5225 3.95913 6.455 3.84663 6.3425L3.16413 5.66C2.92413 5.42 2.92413 5.03 3.16413 4.79C3.40413 4.55 3.79413 4.55 4.03413 4.79L4.28163 5.0375L5.88663 3.4325C6.12663 3.1925 6.51663 3.1925 6.75663 3.4325C6.99663 3.6725 6.99663 4.0625 6.75663 4.3025L4.71663 6.3425C4.59663 6.455 4.44663 6.5225 4.28163 6.5225Z" fill="#8C8C8C"/>
<path opacity="0.4" d="M4.28163 11.2475C4.12413 11.2475 3.96663 11.1875 3.84663 11.0675L3.16413 10.385C2.92413 10.145 2.92413 9.75501 3.16413 9.51501C3.40413 9.27501 3.79413 9.27501 4.03413 9.51501L4.28163 9.76251L5.88663 8.15751C6.12663 7.91751 6.51663 7.91751 6.75663 8.15751C6.99663 8.39751 6.99663 8.78751 6.75663 9.02751L4.71663 11.0675C4.59663 11.1875 4.43913 11.2475 4.28163 11.2475Z" fill="#8C8C8C"/>
<path opacity="0.4" d="M4.28163 15.7475C4.12413 15.7475 3.96663 15.6875 3.84663 15.5675L3.16413 14.885C2.92413 14.645 2.92413 14.255 3.16413 14.015C3.40413 13.775 3.79413 13.775 4.03413 14.015L4.28163 14.2625L5.88663 12.6575C6.12663 12.4175 6.51663 12.4175 6.75663 12.6575C6.99663 12.8975 6.99663 13.2875 6.75663 13.5275L4.71663 15.5675C4.59663 15.6875 4.43913 15.7475 4.28163 15.7475Z" fill="#8C8C8C"/>
</svg>
