<svg width="24" height="24" viewBox="0 0 24 24" fill="none" xmlns="http://www.w3.org/2000/svg">
<path opacity="0.4" d="M18.1845 19.36C17.6574 20.7113 16.3732 21.5833 14.9261 21.5833H9.27196C7.81529 21.5833 6.54071 20.7113 6.01362 19.36C5.48654 17.9992 5.85071 16.4946 6.92404 15.5171L10.8053 12H13.4024L17.274 15.5171C18.3474 16.4946 18.702 17.9992 18.1845 19.36Z" fill="white"/>
<path d="M13.8434 17.8842H10.355C9.99087 17.8842 9.70337 17.5871 9.70337 17.2325C9.70337 16.8683 10.0005 16.5808 10.355 16.5808H13.8434C14.2075 16.5808 14.495 16.8779 14.495 17.2325C14.495 17.5871 14.198 17.8842 13.8434 17.8842Z" fill="white"/>
<path d="M18.1846 4.64001C17.6575 3.28876 16.3733 2.41667 14.9263 2.41667H9.27209C7.82501 2.41667 6.54084 3.28876 6.01376 4.64001C5.49626 6.00084 5.85084 7.50542 6.93376 8.48292L10.8054 12H13.4025L17.2742 8.48292C18.3475 7.50542 18.7021 6.00084 18.1846 4.64001ZM13.8433 7.42876H10.355C9.99084 7.42876 9.70334 7.13167 9.70334 6.77709C9.70334 6.42251 10.0004 6.12542 10.355 6.12542H13.8433C14.2075 6.12542 14.495 6.42251 14.495 6.77709C14.495 7.13167 14.1979 7.42876 13.8433 7.42876Z" fill="white"/>
</svg>
