<svg width="24" height="24" viewBox="0 0 24 24" fill="none" xmlns="http://www.w3.org/2000/svg">
<path opacity="0.4" d="M17.322 17.0791C15.712 17.0791 14.2265 16.3221 13.2586 14.99C13.0286 14.6737 13.0957 14.2233 13.4119 13.9838C13.7282 13.7442 14.1786 13.8208 14.4182 14.1371C15.1178 15.0858 16.172 15.6321 17.322 15.6321C19.3249 15.6321 20.9636 14.0029 20.9636 11.9904C20.9636 9.9779 19.3345 8.34875 17.322 8.34875C15.9611 8.34875 14.6769 9.07708 13.9774 10.2367L11.4378 14.4629C10.4794 16.0633 8.7257 17.0504 6.86654 17.0504C4.0682 17.0504 1.78735 14.7696 1.78735 11.9712C1.78735 9.17291 4.0682 6.89209 6.86654 6.89209C8.47654 6.89209 9.96195 7.64917 10.9299 8.98125C11.1599 9.2975 11.0928 9.7479 10.7765 9.98749C10.4507 10.2271 10.0099 10.1504 9.77029 9.83415C9.0707 8.8854 8.01654 8.33915 6.86654 8.33915C4.86362 8.33915 3.22485 9.96834 3.22485 11.9808C3.22485 13.9933 4.85404 15.6225 6.86654 15.6225C8.22737 15.6225 9.51153 14.8942 10.2111 13.7346L12.7507 9.50832C13.709 7.9079 15.4628 6.92084 17.322 6.92084C20.1203 6.92084 22.4011 9.20166 22.4011 12C22.4011 14.7983 20.1203 17.0791 17.322 17.0791Z" fill="white"/>
<path d="M6.82829 13.9167C7.88683 13.9167 8.74495 13.0585 8.74495 12C8.74495 10.9414 7.88683 10.0833 6.82829 10.0833C5.76974 10.0833 4.91162 10.9414 4.91162 12C4.91162 13.0585 5.76974 13.9167 6.82829 13.9167Z" fill="white"/>
<path d="M17.37 13.9167C18.4286 13.9167 19.2867 13.0585 19.2867 12C19.2867 10.9414 18.4286 10.0833 17.37 10.0833C16.3115 10.0833 15.4534 10.9414 15.4534 12C15.4534 13.0585 16.3115 13.9167 17.37 13.9167Z" fill="white"/>
</svg>
