<svg width="17" height="17" viewBox="0 0 17 17" fill="none" xmlns="http://www.w3.org/2000/svg">
<path opacity="0.4" d="M14.6591 14.8333C14.6591 15.02 14.5124 15.1667 14.3257 15.1667L2.8724 15.1667C2.68573 15.1667 2.53906 15.02 2.53906 14.8333C2.53906 12.0733 5.25906 9.83334 8.59906 9.83333C9.28573 9.83333 9.9524 9.92665 10.5657 10.1066C10.1724 10.5733 9.93239 11.18 9.93239 11.8333C9.93239 12.3333 10.0724 12.8067 10.3191 13.2067C10.4524 13.4333 10.6257 13.64 10.8257 13.8133C11.2924 14.24 11.9124 14.5 12.5991 14.5C13.3457 14.5 14.0191 14.1933 14.4991 13.7C14.6057 14.06 14.6591 14.44 14.6591 14.8333Z" fill="#59A749"/>
<path d="M14.579 10.0533C14.099 9.50667 13.3857 9.16666 12.599 9.16666C11.8524 9.16666 11.1724 9.47335 10.6857 9.97335C10.219 10.4533 9.93237 11.1133 9.93237 11.8333C9.93237 12.3333 10.0724 12.8067 10.319 13.2067C10.4524 13.4333 10.6257 13.64 10.8257 13.8133C11.2924 14.24 11.9124 14.5 12.599 14.5C13.5724 14.5 14.4191 13.98 14.879 13.2067C15.019 12.98 15.1257 12.72 15.1857 12.4533C15.239 12.2533 15.2657 12.0467 15.2657 11.8333C15.2657 11.1533 15.0057 10.5267 14.579 10.0533ZM13.599 12.32L13.099 12.32L13.099 12.84C13.099 13.1133 12.8724 13.34 12.599 13.34C12.3257 13.34 12.099 13.1133 12.099 12.84L12.099 12.32L11.599 12.32C11.3257 12.32 11.099 12.0933 11.099 11.82C11.099 11.5467 11.3257 11.32 11.599 11.32L12.099 11.32L12.099 10.8467C12.099 10.5733 12.3257 10.3467 12.599 10.3467C12.8724 10.3467 13.099 10.5733 13.099 10.8467L13.099 11.32L13.599 11.32C13.8724 11.32 14.099 11.5467 14.099 11.82C14.099 12.0933 13.8724 12.32 13.599 12.32Z" fill="#59A749"/>
<path d="M8.5992 8.5C10.4402 8.5 11.9325 7.00762 11.9325 5.16667C11.9325 3.32572 10.4402 1.83333 8.5992 1.83334C6.75825 1.83334 5.26587 3.32572 5.26587 5.16667C5.26587 7.00762 6.75825 8.5 8.5992 8.5Z" fill="#59A749"/>
</svg>
