<svg xmlns="http://www.w3.org/2000/svg" width="25" height="24" fill="none" viewBox="0 0 25 24"><g filter="url(#filter0_d_299_7736)"><path fill="#fff" fill-rule="evenodd" d="M9.32168 12.6692L7.87652 11.9394C6.88975 11.441 5.60426 11.7935 5.00359 12.7258L5.14355 12.5086C4.99448 12.74 5.0497 13.0704 5.26736 13.2458L7.91784 15.382C8.33802 15.7207 9.1243 16.0887 9.6597 16.1926C9.6597 16.1926 12.8196 16.7279 13.2027 17.3914L13.6877 18.2314L17.1518 16.2314L18.0991 15.6845L18.8839 15.2314L19.7499 14.7314L19.2649 13.8914C18.8818 13.2279 18.9819 10.3836 18.9819 10.3836C18.9879 9.83847 18.7752 9.00707 18.5009 8.53192L16.4835 5.0377C16.0212 4.27312 15.0016 4.02582 14.1902 4.49429C13.7842 4.72866 13.6364 5.23198 13.8599 5.619L14.0215 5.89886C13.5748 5.12524 12.5552 4.87794 11.7438 5.34642C11.3379 5.58078 11.1901 6.0841 11.4135 6.47112L11.5751 6.75099C11.1284 5.97736 10.1089 5.73006 9.29743 6.19854C8.8915 6.4329 8.74369 6.93622 8.96713 7.32324L9.12871 7.60311C9.05693 7.47878 8.98658 7.38762 8.91569 7.32412L6.60819 3.84497C6.29616 3.3745 5.666 3.23284 5.18771 3.50898C4.70608 3.78705 4.5455 4.39664 4.82159 4.87484L6.82168 8.33911L9.32168 12.6692Z" clip-rule="evenodd"/><path stroke="#363B3E" stroke-width="1.2" d="M4.52466 12.4173C4.36375 12.8733 4.50736 13.4039 4.89084 13.7129L7.54133 15.8492C8.03686 16.2486 8.91297 16.6589 9.54547 16.7816L9.55247 16.783L9.55942 16.7841L4.52466 12.4173ZM4.52466 12.4173L4.49921 12.4009M4.52466 12.4173L4.49921 12.4009M4.49921 12.4009L4.63917 12.1836L4.49921 12.4009ZM7.81775 11.2644C6.69566 10.8753 5.38888 11.2547 4.64965 12.1904L9.55949 16.7842L9.55964 16.7842L9.56092 16.7844L9.56682 16.7854L9.59146 16.7897C9.61343 16.7936 9.6462 16.7994 9.68833 16.8071C9.77264 16.8225 9.89421 16.8454 10.0416 16.8749C10.3371 16.9341 10.7325 17.0193 11.1373 17.124C11.5456 17.2297 11.9465 17.3509 12.26 17.4793C12.4171 17.5438 12.5367 17.6037 12.6189 17.6559C12.6642 17.6847 12.6863 17.7037 12.6944 17.7109L13.1681 18.5314L13.4681 19.051L13.9877 18.751L17.4518 16.751L18.3991 16.2041L19.1839 15.751L20.0499 15.251L20.5695 14.951L20.2695 14.4314L19.7845 13.5914C19.7847 13.5917 19.7825 13.588 19.7786 13.5792C19.7748 13.5705 19.7698 13.5583 19.7641 13.5421C19.7524 13.5093 19.7395 13.4656 19.7262 13.4101C19.6993 13.2981 19.6751 13.1565 19.6545 12.9898C19.6134 12.6565 19.5907 12.2599 19.5795 11.8714C19.5684 11.4851 19.5689 11.1175 19.5722 10.8457C19.5739 10.7101 19.5762 10.599 19.5782 10.5222L19.5806 10.434L19.5813 10.4115L19.5815 10.4061L19.5815 10.4049L19.5815 10.4047L19.5815 10.4046L19.5815 10.4046L19.5818 10.3974L19.5819 10.3902C19.5856 10.0482 19.5225 9.64899 19.4274 9.28132C19.3325 8.91401 19.1937 8.53182 19.0205 8.23192L17.0031 4.7377L17.0032 4.73763L16.9969 4.72724C16.3556 3.66663 14.9675 3.35271 13.8902 3.97468C13.6271 4.12654 13.4237 4.3517 13.2982 4.61139C12.7012 4.4274 12.0254 4.49104 11.4438 4.8268C11.1808 4.97867 10.9774 5.20382 10.8518 5.46352C10.2549 5.27952 9.57899 5.34316 8.99743 5.67892C8.88602 5.74324 8.78532 5.82071 8.69669 5.90838L7.10821 3.51334C6.61983 2.77698 5.63862 2.55583 4.88771 2.98937C4.1179 3.43382 3.8609 4.41088 4.30197 5.17484L6.30207 8.63911L7.81775 11.2644Z"/></g><defs><filter id="filter0_d_299_7736" width="23.902" height="23.702" x=".486" y=".169" color-interpolation-filters="sRGB" filterUnits="userSpaceOnUse"><feFlood flood-opacity="0" result="BackgroundImageFix"/><feColorMatrix in="SourceAlpha" result="hardAlpha" type="matrix" values="0 0 0 0 0 0 0 0 0 0 0 0 0 0 0 0 0 0 127 0"/><feOffset dy="1"/><feGaussianBlur stdDeviation="1.5"/><feColorMatrix type="matrix" values="0 0 0 0 0 0 0 0 0 0 0 0 0 0 0 0 0 0 0.2 0"/><feBlend in2="BackgroundImageFix" mode="normal" result="effect1_dropShadow_299_7736"/><feBlend in="SourceGraphic" in2="effect1_dropShadow_299_7736" mode="normal" result="shape"/></filter></defs></svg>