<svg xmlns="http://www.w3.org/2000/svg" width="200" height="200" fill="none" viewBox="0 0 200 200"><path fill="#292D32" d="M100.583 74.5833C100.249 74.5833 99.7493 74.5833 99.3327 74.5833C90.5827 74.25 83.666 67.1666 83.666 58.3333C83.666 49.3333 90.916 42.0833 99.916 42.0833C108.916 42.0833 116.166 49.4166 116.166 58.3333C116.249 67.1666 109.333 74.3333 100.583 74.5833Z"/><path fill="#292D32" d="M77.083 99.6666C65.9997 107.083 65.9997 119.167 77.083 126.583C89.6663 135 110.333 135 122.916 126.583C134 119.167 134 107.083 122.916 99.6666C110.333 91.3333 89.7497 91.3333 77.083 99.6666Z"/><path fill="#292D32" d="M150 16.6667H50C36.1667 16.6667 25 27.75 25 41.4167V132.333C25 146 36.1667 157.083 50 157.083H56.3333C63 157.083 69.3333 159.667 74 164.333L88.25 178.417C94.75 184.833 105.333 184.833 111.833 178.417L126.083 164.333C130.75 159.667 137.167 157.083 143.75 157.083H150C163.833 157.083 175 146 175 132.333V41.4167C175 27.75 163.833 16.6667 150 16.6667ZM100 42.0834C109 42.0834 116.25 49.4167 116.25 58.3334C116.25 67.1667 109.25 74.25 100.583 74.5833C100.25 74.5833 99.75 74.5833 99.3333 74.5833C90.5833 74.25 83.6667 67.1667 83.6667 58.3334C83.75 49.4167 91 42.0834 100 42.0834ZM122.917 126.583C110.333 135 89.6667 135 77.0833 126.583C66 119.25 66 107.083 77.0833 99.6667C89.75 91.25 110.417 91.25 122.917 99.6667C134 107.083 134 119.167 122.917 126.583Z" opacity=".4"/></svg>