<svg width="15" height="15" viewBox="0 0 15 15" fill="none" xmlns="http://www.w3.org/2000/svg">
<path d="M5.85488 12.8958C5.74405 12.8958 5.63321 12.855 5.54571 12.7675L2.62321 9.845C2.45405 9.67583 2.45405 9.39583 2.62321 9.22667C2.79238 9.0575 3.07238 9.0575 3.24155 9.22667L6.16405 12.1492C6.33321 12.3183 6.33321 12.5983 6.16405 12.7675C6.07655 12.8492 5.96571 12.8958 5.85488 12.8958Z" fill="#8C8C8C"/>
<path d="M5.85498 12.8958C5.61582 12.8958 5.41748 12.6975 5.41748 12.4583L5.41748 2.54167C5.41748 2.30251 5.61581 2.10417 5.85498 2.10417C6.09415 2.10417 6.29248 2.3025 6.29248 2.54167L6.29248 12.4583C6.29248 12.6975 6.09415 12.8958 5.85498 12.8958Z" fill="#8C8C8C"/>
<path d="M12.2716 5.90166C12.1608 5.90166 12.05 5.86083 11.9625 5.77333L9.03996 2.85083C8.87079 2.68166 8.87079 2.40166 9.03996 2.2325C9.20913 2.06333 9.48913 2.06333 9.65829 2.2325L12.5808 5.155C12.75 5.32416 12.75 5.60416 12.5808 5.77333C12.4933 5.86083 12.3825 5.90166 12.2716 5.90166Z" fill="#8C8C8C"/>
<path d="M9.34326 12.8958C9.1041 12.8958 8.90576 12.6975 8.90576 12.4583L8.90576 2.54167C8.90576 2.30251 9.1041 2.10417 9.34326 2.10417C9.58243 2.10417 9.78076 2.3025 9.78076 2.54167L9.78076 12.4583C9.78076 12.6975 9.58826 12.8958 9.34326 12.8958Z" fill="#8C8C8C"/>
</svg>
