<svg width="15" height="15" viewBox="0 0 15 15" fill="none" xmlns="http://www.w3.org/2000/svg">
<path d="M10.4456 12.3125C9.32564 12.3125 8.2698 11.7175 7.69814 10.755C7.3948 10.265 7.2373 9.69333 7.2373 9.10416C7.2373 7.33666 8.67814 5.89583 10.4456 5.89583C12.2131 5.89583 13.654 7.33666 13.654 9.10416C13.654 9.69333 13.4906 10.265 13.1873 10.7608C12.6215 11.7175 11.5715 12.3125 10.4456 12.3125ZM10.4456 6.77083C9.15647 6.77083 8.1123 7.81499 8.1123 9.10416C8.1123 9.52999 8.22897 9.94415 8.45064 10.3C8.87064 11.0058 9.6348 11.4375 10.4456 11.4375C11.274 11.4375 12.0206 11.0175 12.4406 10.3058C12.6623 9.94416 12.779 9.52999 12.779 9.10416C12.779 7.81499 11.7348 6.77083 10.4456 6.77083Z" fill="#8C8C8C"/>
<path d="M11.4839 9.52998H9.41309C9.17392 9.52998 8.97559 9.33165 8.97559 9.09248C8.97559 8.85332 9.17392 8.65498 9.41309 8.65498H11.4839C11.7231 8.65498 11.9214 8.85332 11.9214 9.09248C11.9214 9.33165 11.7231 9.52998 11.4839 9.52998Z" fill="#8C8C8C"/>
<path d="M10.4458 10.5858C10.2066 10.5858 10.0083 10.3875 10.0083 10.1483V8.08333C10.0083 7.84416 10.2066 7.64583 10.4458 7.64583C10.685 7.64583 10.8833 7.84416 10.8833 8.08333V10.1542C10.8833 10.3933 10.6908 10.5858 10.4458 10.5858Z" fill="#8C8C8C"/>
<path d="M6.97476 13.7708C6.69476 13.7708 6.41476 13.7008 6.16393 13.5608C5.64476 13.2692 5.33559 12.7442 5.33559 12.155V9.03417C5.33559 8.74251 5.14309 8.29916 4.95643 8.07166L2.73976 5.74417C2.37226 5.365 2.08643 4.72918 2.08643 4.26251V2.90334C2.08643 1.96417 2.79809 1.22917 3.70226 1.22917H11.4839C12.3764 1.22917 13.0998 1.95252 13.0998 2.84502V4.14C13.0998 4.7525 12.7381 5.44085 12.3881 5.80252L11.3381 6.73C11.2331 6.82333 11.0873 6.85832 10.9473 6.82916C10.7898 6.78832 10.6206 6.77084 10.4456 6.77084C9.15643 6.77084 8.11226 7.815 8.11226 9.10417C8.11226 9.53 8.22893 9.94417 8.45059 10.3058C8.63726 10.615 8.88809 10.8717 9.17976 11.0525C9.30809 11.1342 9.38976 11.2742 9.38976 11.4258V11.6242C9.38976 12.085 9.10976 12.7325 8.64309 13.0067L7.83809 13.5258C7.57559 13.6892 7.27226 13.7708 6.97476 13.7708ZM3.70809 2.10417C3.29393 2.10417 2.96726 2.45417 2.96726 2.90334V4.26251C2.96726 4.47251 3.14226 4.90418 3.37559 5.13751L5.62143 7.5C5.91893 7.8675 6.21643 8.49168 6.21643 9.04001V12.1608C6.21643 12.5458 6.48476 12.7384 6.59559 12.8025C6.84643 12.9425 7.14393 12.9367 7.37143 12.7967L8.18809 12.2717C8.34559 12.1783 8.50309 11.8809 8.51476 11.6709C8.19393 11.4317 7.91393 11.1225 7.70393 10.7725C7.40059 10.2767 7.23726 9.70502 7.23726 9.12169C7.23726 7.35419 8.67809 5.91336 10.4456 5.91336C10.6089 5.91336 10.7723 5.92502 10.9239 5.94835L11.7873 5.18419C11.9856 4.98002 12.2306 4.49584 12.2306 4.15168V2.85666C12.2306 2.44833 11.8981 2.11585 11.4898 2.11585H3.70809V2.10417Z" fill="#8C8C8C"/>
</svg>
