<svg width="16" height="15" viewBox="0 0 16 15" fill="none" xmlns="http://www.w3.org/2000/svg">
<path opacity="0.4" d="M9.77412 1.875H4.79912C2.64287 1.875 1.34912 3.1625 1.34912 5.325V10.2937C1.34912 12.4625 2.64287 13.75 4.79912 13.75H9.76787C11.9304 13.75 13.2179 12.4625 13.2179 10.3V5.325C13.2241 3.1625 11.9304 1.875 9.77412 1.875Z" fill="#59A749"/>
<path d="M13.2366 1.86243C12.1179 0.737428 11.0241 0.712428 9.87411 1.86243L9.16786 2.56243C9.10536 2.62493 9.08661 2.71243 9.11161 2.79368C9.54911 4.32493 10.7741 5.54993 12.3054 5.98743C12.3241 5.99368 12.3554 5.99368 12.3741 5.99368C12.4366 5.99368 12.4991 5.96868 12.5429 5.92493L13.2366 5.22493C13.8054 4.65618 14.0866 4.11243 14.0866 3.55618C14.0866 2.99368 13.8054 2.43743 13.2366 1.86243Z" fill="#59A749"/>
<path d="M11.2616 6.5124C11.0929 6.43115 10.9304 6.3499 10.7804 6.25615C10.6554 6.18115 10.5304 6.0999 10.4116 6.0124C10.3116 5.9499 10.1991 5.85615 10.0866 5.7624C10.0741 5.75615 10.0366 5.7249 9.98662 5.6749C9.79287 5.51865 9.58662 5.30615 9.39287 5.0749C9.38037 5.0624 9.34287 5.0249 9.31162 4.96865C9.24912 4.8999 9.15537 4.78115 9.07412 4.6499C9.00537 4.5624 8.92412 4.4374 8.84912 4.30615C8.75537 4.1499 8.67412 3.99365 8.59912 3.83115C8.51787 3.65615 8.45537 3.49365 8.39912 3.3374L5.03662 6.6999C4.81787 6.91865 4.60537 7.33115 4.56162 7.6374L4.29287 9.4999C4.23662 9.89365 4.34287 10.2624 4.58662 10.5062C4.79287 10.7124 5.07412 10.8187 5.38662 10.8187C5.45537 10.8187 5.52412 10.8124 5.59287 10.8062L7.44912 10.5437C7.75537 10.4999 8.16787 10.2937 8.38662 10.0687L11.7491 6.70615C11.5929 6.65615 11.4366 6.5874 11.2616 6.5124Z" fill="#59A749"/>
</svg>
