<svg width="19" height="19" viewBox="0 0 19 19" fill="none" xmlns="http://www.w3.org/2000/svg">
<path opacity="0.4" d="M14.7065 5.18751H15.7266C15.5841 4.98501 15.4341 4.79752 15.2766 4.61002L14.7065 5.18751Z" fill="#8C8C8C"/>
<path opacity="0.4" d="M14.4891 3.81499C14.3016 3.65749 14.1141 3.50749 13.9116 3.36499V4.38499L14.4891 3.81499Z" fill="#8C8C8C"/>
<path opacity="0.4" d="M13.3491 6.3125C13.2741 6.3125 13.2066 6.2975 13.1316 6.2675C12.9966 6.2075 12.8841 6.1025 12.8241 5.96C12.7941 5.8925 12.7791 5.8175 12.7791 5.7425V2.7425C12.7791 2.735 12.7866 2.7275 12.7866 2.7125C11.8191 2.2625 10.7391 2 9.59912 2C5.45912 2 2.09912 5.36 2.09912 9.5C2.09912 13.64 5.45912 17 9.59912 17C13.7391 17 17.0991 13.64 17.0991 9.5C17.0991 8.36 16.8366 7.28 16.3791 6.305C16.3716 6.305 16.3641 6.3125 16.3491 6.3125H13.3491Z" fill="#8C8C8C"/>
<path d="M15.284 4.61002L17.4965 2.39752C17.714 2.18002 17.714 1.82002 17.4965 1.60252C17.279 1.38502 16.919 1.38502 16.7015 1.60252L14.489 3.81501C14.774 4.06251 15.0365 4.33252 15.284 4.61002Z" fill="#8C8C8C"/>
<path d="M13.9117 2.75C13.9117 2.4425 13.6567 2.1875 13.3492 2.1875C13.0492 2.1875 12.8092 2.4275 12.7942 2.72C13.1842 2.9075 13.5592 3.1175 13.9117 3.365V2.75Z" fill="#8C8C8C"/>
<path d="M16.9116 5.75C16.9116 5.4425 16.6566 5.1875 16.3491 5.1875H15.7266C15.9741 5.54 16.1916 5.915 16.3716 6.305C16.6716 6.29 16.9116 6.05 16.9116 5.75Z" fill="#8C8C8C"/>
<path d="M10.9116 9.365L10.1616 9.1025V7.4375H10.2216C10.6041 7.4375 10.9116 7.775 10.9116 8.1875C10.9116 8.495 11.1666 8.75 11.4741 8.75C11.7816 8.75 12.0366 8.495 12.0366 8.1875C12.0366 7.1525 11.2266 6.3125 10.2216 6.3125H10.1616V6.125C10.1616 5.8175 9.90662 5.5625 9.59912 5.5625C9.29162 5.5625 9.03662 5.8175 9.03662 6.125V6.3125H8.81163C7.90413 6.3125 7.16162 7.0775 7.16162 8.0225C7.16162 9.1175 7.79912 9.47 8.28662 9.6425L9.03662 9.905V11.57H8.97663C8.59413 11.57 8.28662 11.2325 8.28662 10.82C8.28662 10.5125 8.03162 10.2575 7.72412 10.2575C7.41662 10.2575 7.16162 10.5125 7.16162 10.82C7.16162 11.855 7.97163 12.695 8.97663 12.695H9.03662V12.8825C9.03662 13.19 9.29162 13.445 9.59912 13.445C9.90662 13.445 10.1616 13.19 10.1616 12.8825V12.695H10.3866C11.2941 12.695 12.0366 11.93 12.0366 10.985C12.0366 9.8825 11.3991 9.53 10.9116 9.365ZM8.65411 8.57C8.39911 8.48 8.28662 8.4275 8.28662 8.015C8.28662 7.6925 8.52663 7.43 8.81163 7.43H9.03662V8.6975L8.65411 8.57ZM10.3866 11.5625H10.1616V10.295L10.5441 10.43C10.7991 10.52 10.9116 10.5725 10.9116 10.985C10.9116 11.3 10.6716 11.5625 10.3866 11.5625Z" fill="#8C8C8C"/>
<path d="M13.9187 4.37752L13.9187 2.55502C13.9187 2.24752 13.6637 1.99252 13.3562 1.99252C13.0487 1.99252 12.7937 2.24752 12.7937 2.55502L12.7937 5.73502C12.7937 5.81002 12.8087 5.87752 12.8387 5.95252C12.8987 6.08752 13.0037 6.20002 13.1462 6.26002C13.2137 6.29002 13.2887 6.30502 13.3637 6.30502L16.5362 6.30502C16.8437 6.30502 17.0987 6.05002 17.0987 5.74252C17.0987 5.43502 16.8437 5.18002 16.5362 5.18002L14.7137 5.18002L17.9987 1.89502C18.2162 1.67752 18.2162 1.31751 17.9987 1.10001C17.7812 0.882515 17.4212 0.882515 17.2037 1.10001L13.9187 4.37752Z" fill="#8C8C8C"/>
</svg>
