<svg width="16" height="15" viewBox="0 0 16 15" fill="none" xmlns="http://www.w3.org/2000/svg">
<path d="M13.2678 3.26875C12.2616 3.16875 11.2553 3.09375 10.2428 3.0375V3.03125L10.1053 2.21875C10.0116 1.64375 9.8741 0.78125 8.4116 0.78125H6.7741C5.31785 0.78125 5.18035 1.60625 5.08035 2.2125L4.9491 3.0125C4.36785 3.05 3.7866 3.0875 3.20535 3.14375L1.93035 3.26875C1.66785 3.29375 1.48035 3.525 1.50535 3.78125C1.53035 4.0375 1.75535 4.225 2.01785 4.2L3.29285 4.075C6.56785 3.75 9.86785 3.875 13.1803 4.20625C13.1991 4.20625 13.2116 4.20625 13.2303 4.20625C13.4678 4.20625 13.6741 4.025 13.6991 3.78125C13.7178 3.525 13.5303 3.29375 13.2678 3.26875Z" fill="#A74959"/>
<path opacity="0.3991" d="M12.1179 5.0875C11.9679 4.93125 11.7616 4.84375 11.5491 4.84375H3.64915C3.43665 4.84375 3.22415 4.93125 3.0804 5.0875C2.93665 5.24375 2.8554 5.45625 2.8679 5.675L3.2554 12.0875C3.32415 13.0375 3.41165 14.225 5.5929 14.225H9.6054C11.7866 14.225 11.8741 13.0438 11.9429 12.0875L12.3304 5.68125C12.3429 5.45625 12.2616 5.24375 12.1179 5.0875Z" fill="#A74959"/>
<path fill-rule="evenodd" clip-rule="evenodd" d="M6.08661 10.625C6.08661 10.3661 6.29648 10.1562 6.55536 10.1562H8.63661C8.89549 10.1562 9.10536 10.3661 9.10536 10.625C9.10536 10.8839 8.89549 11.0938 8.63661 11.0938H6.55536C6.29648 11.0938 6.08661 10.8839 6.08661 10.625Z" fill="#A74959"/>
<path fill-rule="evenodd" clip-rule="evenodd" d="M5.56787 8.125C5.56787 7.86612 5.77774 7.65625 6.03662 7.65625H9.16162C9.4205 7.65625 9.63037 7.86612 9.63037 8.125C9.63037 8.38388 9.4205 8.59375 9.16162 8.59375H6.03662C5.77774 8.59375 5.56787 8.38388 5.56787 8.125Z" fill="#A74959"/>
</svg>
